<svg width="24" height="25" viewBox="0 0 24 25" fill="none" xmlns="http://www.w3.org/2000/svg">
    <g clip-path="url(#bs7n4d945a)">
        <path d="M12 2.917c5.523 0 10 4.477 10 10 0 .728-.077 1.435-.225 2.119l-1.782-1.784a8 8 0 1 0-4.375 6.801 3.998 3.998 0 0 0 1.555 1.424A9.956 9.956 0 0 1 12 22.917c-5.523 0-10-4.477-10-10s4.477-10 10-10zm7 12.172 1.414 1.414a2 2 0 1 1-2.93.11l.102-.11L19 15.09zm-7 .829c1.466 0 2.785.63 3.7 1.637l-.945.86c-.79-.316-1.737-.497-2.755-.497-1.018 0-1.965.183-2.755.495l-.945-.86a4.987 4.987 0 0 1 3.7-1.636zm-3.5-5a1.5 1.5 0 1 1 0 3 1.5 1.5 0 0 1 0-3zm7 0a1.5 1.5 0 1 1 0 3 1.5 1.5 0 0 1 0-3z" fill="#FFA100"/>
    </g>
    <defs>
        <clipPath id="bs7n4d945a">
            <path fill="#fff" transform="translate(0 .917)" d="M0 0h24v24H0z"/>
        </clipPath>
    </defs>
</svg>
